<mxfile host="app.diagrams.net" modified="2023-01-27T07:45:13.211Z" agent="5.0 (Windows NT 10.0; Win64; x64) AppleWebKit/537.36 (KHTML, like Gecko) Chrome/109.0.0.0 Safari/537.36" etag="Lx7PKsZLARn1_lIlqRXH" version="20.8.10" type="github">
  <diagram name="Page-1" id="mfASE-bE5K1xZ66X_48S">
    <mxGraphModel dx="2074" dy="1156" grid="1" gridSize="10" guides="1" tooltips="1" connect="1" arrows="1" fold="1" page="1" pageScale="1" pageWidth="827" pageHeight="1169" math="0" shadow="0">
      <root>
        <mxCell id="0" />
        <object label="background" id="Hh2Wy0dAyhKDAtI426Yj-69">
          <mxCell parent="0" />
        </object>
        <mxCell id="Hh2Wy0dAyhKDAtI426Yj-73" value="" style="rounded=0;whiteSpace=wrap;html=1;strokeWidth=0;fontSize=14;" parent="Hh2Wy0dAyhKDAtI426Yj-69" vertex="1">
          <mxGeometry y="200" width="900" height="350" as="geometry" />
        </mxCell>
        <object label="main" id="1">
          <mxCell style="" parent="0" />
        </object>
        <mxCell id="Hh2Wy0dAyhKDAtI426Yj-17" style="edgeStyle=orthogonalEdgeStyle;rounded=0;orthogonalLoop=1;jettySize=auto;html=1;exitX=1;exitY=0.5;exitDx=0;exitDy=0;entryX=0;entryY=0.75;entryDx=0;entryDy=0;fontSize=14;" parent="1" source="Hh2Wy0dAyhKDAtI426Yj-12" target="Hh2Wy0dAyhKDAtI426Yj-11" edge="1">
          <mxGeometry relative="1" as="geometry">
            <Array as="points">
              <mxPoint x="380" y="425" />
              <mxPoint x="380" y="285" />
            </Array>
          </mxGeometry>
        </mxCell>
        <mxCell id="Hh2Wy0dAyhKDAtI426Yj-9" style="edgeStyle=orthogonalEdgeStyle;rounded=0;orthogonalLoop=1;jettySize=auto;html=1;exitX=1;exitY=0.5;exitDx=0;exitDy=0;entryX=0;entryY=0.5;entryDx=0;entryDy=0;fontSize=14;" parent="1" source="Hh2Wy0dAyhKDAtI426Yj-1" target="Hh2Wy0dAyhKDAtI426Yj-5" edge="1">
          <mxGeometry relative="1" as="geometry" />
        </mxCell>
        <mxCell id="Hh2Wy0dAyhKDAtI426Yj-1" value="&lt;font style=&quot;&quot;&gt;&lt;span style=&quot;font-size: 14px;&quot;&gt;&lt;span&gt;Experiment config&lt;/span&gt;&lt;/span&gt;&lt;font size=&quot;1&quot;&gt;&lt;br&gt;&lt;/font&gt;&lt;/font&gt;" style="rounded=1;whiteSpace=wrap;html=1;fillColor=#dae8fc;strokeColor=#6c8ebf;fontStyle=2" parent="1" vertex="1">
          <mxGeometry x="40" y="245" width="130" height="50" as="geometry" />
        </mxCell>
        <mxCell id="Hh2Wy0dAyhKDAtI426Yj-8" style="edgeStyle=orthogonalEdgeStyle;rounded=0;orthogonalLoop=1;jettySize=auto;html=1;exitX=1;exitY=0.25;exitDx=0;exitDy=0;entryX=0;entryY=0.75;entryDx=0;entryDy=0;fontSize=14;" parent="1" source="Hh2Wy0dAyhKDAtI426Yj-2" target="Hh2Wy0dAyhKDAtI426Yj-5" edge="1">
          <mxGeometry relative="1" as="geometry" />
        </mxCell>
        <mxCell id="Hh2Wy0dAyhKDAtI426Yj-2" value="&lt;font style=&quot;&quot;&gt;&lt;span style=&quot;font-size: 14px;&quot;&gt;&lt;span&gt;Environment config&lt;/span&gt;&lt;/span&gt;&lt;font size=&quot;1&quot;&gt;&lt;br&gt;&lt;/font&gt;&lt;/font&gt;" style="rounded=1;whiteSpace=wrap;html=1;fillColor=#dae8fc;strokeColor=#6c8ebf;fontStyle=2" parent="1" vertex="1">
          <mxGeometry x="40" y="320" width="130" height="50" as="geometry" />
        </mxCell>
        <mxCell id="Hh2Wy0dAyhKDAtI426Yj-10" style="edgeStyle=orthogonalEdgeStyle;rounded=0;orthogonalLoop=1;jettySize=auto;html=1;exitX=0.5;exitY=1;exitDx=0;exitDy=0;entryX=0.5;entryY=0;entryDx=0;entryDy=0;fontSize=14;dashed=1;" parent="1" source="Hh2Wy0dAyhKDAtI426Yj-5" edge="1">
          <mxGeometry relative="1" as="geometry">
            <mxPoint x="270" y="340" as="targetPoint" />
          </mxGeometry>
        </mxCell>
        <mxCell id="Hh2Wy0dAyhKDAtI426Yj-5" value="search.py" style="rounded=1;whiteSpace=wrap;html=1;fontSize=14;fillColor=#f8cecc;strokeColor=#b85450;fontStyle=1" parent="1" vertex="1">
          <mxGeometry x="210" y="240" width="120" height="60" as="geometry" />
        </mxCell>
        <mxCell id="Hh2Wy0dAyhKDAtI426Yj-18" style="edgeStyle=orthogonalEdgeStyle;rounded=0;orthogonalLoop=1;jettySize=auto;html=1;entryX=0;entryY=0.5;entryDx=0;entryDy=0;fontSize=14;exitX=1;exitY=0.25;exitDx=0;exitDy=0;" parent="1" source="Hh2Wy0dAyhKDAtI426Yj-28" target="Hh2Wy0dAyhKDAtI426Yj-11" edge="1">
          <mxGeometry relative="1" as="geometry">
            <mxPoint x="340" y="377" as="sourcePoint" />
            <Array as="points">
              <mxPoint x="360" y="380" />
              <mxPoint x="360" y="270" />
            </Array>
          </mxGeometry>
        </mxCell>
        <mxCell id="Hh2Wy0dAyhKDAtI426Yj-11" value="train_final.py" style="rounded=1;whiteSpace=wrap;html=1;fontSize=14;fillColor=#f8cecc;strokeColor=#b85450;fontStyle=1" parent="1" vertex="1">
          <mxGeometry x="400" y="240" width="120" height="60" as="geometry" />
        </mxCell>
        <mxCell id="Hh2Wy0dAyhKDAtI426Yj-12" value="&lt;font style=&quot;&quot;&gt;&lt;span style=&quot;font-size: 14px;&quot;&gt;&lt;span&gt;Optuna config&lt;/span&gt;&lt;/span&gt;&lt;font size=&quot;1&quot;&gt;&lt;br&gt;&lt;/font&gt;&lt;/font&gt;" style="rounded=1;whiteSpace=wrap;html=1;fillColor=#dae8fc;strokeColor=#6c8ebf;fontStyle=2" parent="1" vertex="1">
          <mxGeometry x="40" y="400" width="130" height="50" as="geometry" />
        </mxCell>
        <mxCell id="Hh2Wy0dAyhKDAtI426Yj-19" style="edgeStyle=orthogonalEdgeStyle;rounded=0;orthogonalLoop=1;jettySize=auto;html=1;exitX=0.5;exitY=1;exitDx=0;exitDy=0;entryX=0.5;entryY=0;entryDx=0;entryDy=0;fontSize=14;dashed=1;" parent="1" edge="1">
          <mxGeometry relative="1" as="geometry">
            <mxPoint x="459.65999999999997" y="300" as="sourcePoint" />
            <mxPoint x="459.65999999999997" y="340" as="targetPoint" />
          </mxGeometry>
        </mxCell>
        <mxCell id="Hh2Wy0dAyhKDAtI426Yj-22" style="edgeStyle=orthogonalEdgeStyle;rounded=0;orthogonalLoop=1;jettySize=auto;html=1;exitX=1;exitY=0.25;exitDx=0;exitDy=0;entryX=0;entryY=0.5;entryDx=0;entryDy=0;fontSize=14;" parent="1" source="Hh2Wy0dAyhKDAtI426Yj-34" target="Hh2Wy0dAyhKDAtI426Yj-21" edge="1">
          <mxGeometry relative="1" as="geometry">
            <mxPoint x="520" y="377.5" as="sourcePoint" />
          </mxGeometry>
        </mxCell>
        <mxCell id="Hh2Wy0dAyhKDAtI426Yj-66" style="edgeStyle=orthogonalEdgeStyle;rounded=0;orthogonalLoop=1;jettySize=auto;html=1;dashed=1;fontSize=14;entryX=-0.002;entryY=1.005;entryDx=0;entryDy=0;entryPerimeter=0;" parent="1" source="Hh2Wy0dAyhKDAtI426Yj-21" target="Hh2Wy0dAyhKDAtI426Yj-49" edge="1">
          <mxGeometry relative="1" as="geometry">
            <mxPoint x="730.4285714285713" y="360" as="targetPoint" />
            <Array as="points">
              <mxPoint x="750" y="380" />
              <mxPoint x="750" y="380" />
            </Array>
          </mxGeometry>
        </mxCell>
        <mxCell id="Hh2Wy0dAyhKDAtI426Yj-21" value="eval_kaggle.py" style="rounded=1;whiteSpace=wrap;html=1;fontSize=14;fillColor=#f8cecc;strokeColor=#b85450;fontStyle=1" parent="1" vertex="1">
          <mxGeometry x="581.25" y="350" width="128.75" height="60" as="geometry" />
        </mxCell>
        <mxCell id="Hh2Wy0dAyhKDAtI426Yj-55" style="edgeStyle=orthogonalEdgeStyle;rounded=0;orthogonalLoop=1;jettySize=auto;html=1;entryX=0;entryY=0.5;entryDx=0;entryDy=0;fontSize=14;dashed=1;" parent="1" source="Hh2Wy0dAyhKDAtI426Yj-26" target="Hh2Wy0dAyhKDAtI426Yj-54" edge="1">
          <mxGeometry relative="1" as="geometry" />
        </mxCell>
        <mxCell id="Hh2Wy0dAyhKDAtI426Yj-26" value="eval_local_test.py" style="rounded=1;whiteSpace=wrap;html=1;fontSize=14;fillColor=#f8cecc;strokeColor=#b85450;fontStyle=1" parent="1" vertex="1">
          <mxGeometry x="581.25" y="240" width="130" height="60" as="geometry" />
        </mxCell>
        <mxCell id="Hh2Wy0dAyhKDAtI426Yj-28" value="Searcher results&lt;br style=&quot;border-color: var(--border-color);&quot;&gt;directory" style="swimlane;fontStyle=0;childLayout=stackLayout;horizontal=1;startSize=40;horizontalStack=0;resizeParent=1;resizeParentMax=0;resizeLast=0;collapsible=1;marginBottom=0;whiteSpace=wrap;html=1;fontSize=14;rounded=0;fillColor=#ffe6cc;strokeColor=#d79b00;align=left;" parent="1" vertex="1">
          <mxGeometry x="215" y="340" width="110" height="160" as="geometry">
            <mxRectangle x="175" y="340" width="140" height="50" as="alternateBounds" />
          </mxGeometry>
        </mxCell>
        <mxCell id="Hh2Wy0dAyhKDAtI426Yj-29" value="&lt;u style=&quot;background-color: initial; border-color: var(--border-color);&quot;&gt;arches&lt;/u&gt;" style="text;align=left;verticalAlign=middle;spacingLeft=4;spacingRight=4;overflow=hidden;points=[[0,0.5],[1,0.5]];portConstraint=eastwest;rotatable=0;whiteSpace=wrap;html=1;fontSize=14;fillColor=#f5f5f5;fontColor=#333333;strokeColor=#666666;" parent="Hh2Wy0dAyhKDAtI426Yj-28" vertex="1">
          <mxGeometry y="40" width="110" height="30" as="geometry" />
        </mxCell>
        <mxCell id="Hh2Wy0dAyhKDAtI426Yj-30" value="&lt;span style=&quot;background-color: initial;&quot;&gt;tb_csv&lt;/span&gt;" style="text;align=left;verticalAlign=middle;spacingLeft=4;spacingRight=4;overflow=hidden;points=[[0,0.5],[1,0.5]];portConstraint=eastwest;rotatable=0;whiteSpace=wrap;html=1;fontSize=14;fillColor=#f5f5f5;fontColor=#333333;strokeColor=#666666;" parent="Hh2Wy0dAyhKDAtI426Yj-28" vertex="1">
          <mxGeometry y="70" width="110" height="30" as="geometry" />
        </mxCell>
        <mxCell id="Hh2Wy0dAyhKDAtI426Yj-31" value="&lt;span style=&quot;background-color: initial;&quot;&gt;tb_logs&lt;/span&gt;" style="text;align=left;verticalAlign=middle;spacingLeft=4;spacingRight=4;overflow=hidden;points=[[0,0.5],[1,0.5]];portConstraint=eastwest;rotatable=0;whiteSpace=wrap;html=1;fontSize=14;fillColor=#f5f5f5;fontColor=#333333;strokeColor=#666666;" parent="Hh2Wy0dAyhKDAtI426Yj-28" vertex="1">
          <mxGeometry y="100" width="110" height="30" as="geometry" />
        </mxCell>
        <mxCell id="Hh2Wy0dAyhKDAtI426Yj-33" value="&lt;span style=&quot;background-color: initial;&quot;&gt;log_*.txt&lt;/span&gt;" style="text;align=left;verticalAlign=middle;spacingLeft=4;spacingRight=4;overflow=hidden;points=[[0,0.5],[1,0.5]];portConstraint=eastwest;rotatable=0;whiteSpace=wrap;html=1;fontSize=14;fillColor=#f5f5f5;fontColor=#333333;strokeColor=#666666;" parent="Hh2Wy0dAyhKDAtI426Yj-28" vertex="1">
          <mxGeometry y="130" width="110" height="30" as="geometry" />
        </mxCell>
        <mxCell id="Hh2Wy0dAyhKDAtI426Yj-50" style="edgeStyle=orthogonalEdgeStyle;rounded=0;orthogonalLoop=1;jettySize=auto;html=1;exitX=1;exitY=0.25;exitDx=0;exitDy=0;entryX=0;entryY=0.5;entryDx=0;entryDy=0;fontSize=14;" parent="1" source="Hh2Wy0dAyhKDAtI426Yj-34" target="Hh2Wy0dAyhKDAtI426Yj-26" edge="1">
          <mxGeometry relative="1" as="geometry" />
        </mxCell>
        <mxCell id="Hh2Wy0dAyhKDAtI426Yj-34" value="HPO results&lt;br style=&quot;border-color: var(--border-color);&quot;&gt;directory" style="swimlane;fontStyle=0;childLayout=stackLayout;horizontal=1;startSize=40;horizontalStack=0;resizeParent=1;resizeParentMax=0;resizeLast=0;collapsible=1;marginBottom=0;whiteSpace=wrap;html=1;fontSize=14;rounded=0;fillColor=#ffe6cc;strokeColor=#d79b00;align=left;" parent="1" vertex="1">
          <mxGeometry x="415" y="340" width="90" height="160" as="geometry">
            <mxRectangle x="160" y="500" width="140" height="50" as="alternateBounds" />
          </mxGeometry>
        </mxCell>
        <mxCell id="Hh2Wy0dAyhKDAtI426Yj-35" value="&lt;u style=&quot;color: rgb(0, 0, 0); background-color: initial; border-color: var(--border-color);&quot;&gt;checkpoints&lt;/u&gt;" style="text;align=left;verticalAlign=middle;spacingLeft=4;spacingRight=4;overflow=hidden;points=[[0,0.5],[1,0.5]];portConstraint=eastwest;rotatable=0;whiteSpace=wrap;html=1;fontSize=14;fillColor=#f5f5f5;fontColor=#333333;strokeColor=#666666;" parent="Hh2Wy0dAyhKDAtI426Yj-34" vertex="1">
          <mxGeometry y="40" width="90" height="30" as="geometry" />
        </mxCell>
        <mxCell id="Hh2Wy0dAyhKDAtI426Yj-36" value="&lt;span style=&quot;background-color: initial;&quot;&gt;tb_csv&lt;/span&gt;" style="text;align=left;verticalAlign=middle;spacingLeft=4;spacingRight=4;overflow=hidden;points=[[0,0.5],[1,0.5]];portConstraint=eastwest;rotatable=0;whiteSpace=wrap;html=1;fontSize=14;fillColor=#f5f5f5;fontColor=#333333;strokeColor=#666666;" parent="Hh2Wy0dAyhKDAtI426Yj-34" vertex="1">
          <mxGeometry y="70" width="90" height="30" as="geometry" />
        </mxCell>
        <mxCell id="Hh2Wy0dAyhKDAtI426Yj-37" value="&lt;span style=&quot;background-color: initial;&quot;&gt;tb_logs&lt;/span&gt;" style="text;align=left;verticalAlign=middle;spacingLeft=4;spacingRight=4;overflow=hidden;points=[[0,0.5],[1,0.5]];portConstraint=eastwest;rotatable=0;whiteSpace=wrap;html=1;fontSize=14;fillColor=#f5f5f5;fontColor=#333333;strokeColor=#666666;" parent="Hh2Wy0dAyhKDAtI426Yj-34" vertex="1">
          <mxGeometry y="100" width="90" height="30" as="geometry" />
        </mxCell>
        <mxCell id="Hh2Wy0dAyhKDAtI426Yj-38" value="&lt;span style=&quot;background-color: initial;&quot;&gt;log_*.txt&lt;/span&gt;" style="text;align=left;verticalAlign=middle;spacingLeft=4;spacingRight=4;overflow=hidden;points=[[0,0.5],[1,0.5]];portConstraint=eastwest;rotatable=0;whiteSpace=wrap;html=1;fontSize=14;fillColor=#f5f5f5;fontColor=#333333;strokeColor=#666666;" parent="Hh2Wy0dAyhKDAtI426Yj-34" vertex="1">
          <mxGeometry y="130" width="90" height="30" as="geometry" />
        </mxCell>
        <mxCell id="Hh2Wy0dAyhKDAtI426Yj-39" value="HPO results&lt;br style=&quot;border-color: var(--border-color);&quot;&gt;directory" style="swimlane;fontStyle=0;childLayout=stackLayout;horizontal=1;startSize=40;horizontalStack=0;resizeParent=1;resizeParentMax=0;resizeLast=0;collapsible=1;marginBottom=0;whiteSpace=wrap;html=1;fontSize=14;rounded=0;fillColor=#ffe6cc;strokeColor=#d79b00;align=left;" parent="1" vertex="1">
          <mxGeometry x="762" y="310" width="90" height="190" as="geometry">
            <mxRectangle x="160" y="500" width="140" height="50" as="alternateBounds" />
          </mxGeometry>
        </mxCell>
        <mxCell id="Hh2Wy0dAyhKDAtI426Yj-49" value="&lt;u style=&quot;color: rgb(0, 0, 0); background-color: initial; border-color: var(--border-color);&quot;&gt;submissions&lt;/u&gt;" style="text;align=left;verticalAlign=middle;spacingLeft=4;spacingRight=4;overflow=hidden;points=[[0,0.5],[1,0.5]];portConstraint=eastwest;rotatable=0;whiteSpace=wrap;html=1;fontSize=14;fillColor=#f5f5f5;fontColor=#333333;strokeColor=#666666;" parent="Hh2Wy0dAyhKDAtI426Yj-39" vertex="1">
          <mxGeometry y="40" width="90" height="30" as="geometry" />
        </mxCell>
        <mxCell id="Hh2Wy0dAyhKDAtI426Yj-40" value="&lt;span style=&quot;color: rgb(0, 0, 0); background-color: initial; border-color: var(--border-color);&quot;&gt;checkpoints&lt;/span&gt;" style="text;align=left;verticalAlign=middle;spacingLeft=4;spacingRight=4;overflow=hidden;points=[[0,0.5],[1,0.5]];portConstraint=eastwest;rotatable=0;whiteSpace=wrap;html=1;fontSize=14;fillColor=#f5f5f5;fontColor=#333333;strokeColor=#666666;" parent="Hh2Wy0dAyhKDAtI426Yj-39" vertex="1">
          <mxGeometry y="70" width="90" height="30" as="geometry" />
        </mxCell>
        <mxCell id="Hh2Wy0dAyhKDAtI426Yj-41" value="&lt;span style=&quot;background-color: initial;&quot;&gt;tb_csv&lt;/span&gt;" style="text;align=left;verticalAlign=middle;spacingLeft=4;spacingRight=4;overflow=hidden;points=[[0,0.5],[1,0.5]];portConstraint=eastwest;rotatable=0;whiteSpace=wrap;html=1;fontSize=14;fillColor=#f5f5f5;fontColor=#333333;strokeColor=#666666;" parent="Hh2Wy0dAyhKDAtI426Yj-39" vertex="1">
          <mxGeometry y="100" width="90" height="30" as="geometry" />
        </mxCell>
        <mxCell id="Hh2Wy0dAyhKDAtI426Yj-42" value="&lt;span style=&quot;background-color: initial;&quot;&gt;tb_logs&lt;/span&gt;" style="text;align=left;verticalAlign=middle;spacingLeft=4;spacingRight=4;overflow=hidden;points=[[0,0.5],[1,0.5]];portConstraint=eastwest;rotatable=0;whiteSpace=wrap;html=1;fontSize=14;fillColor=#f5f5f5;fontColor=#333333;strokeColor=#666666;" parent="Hh2Wy0dAyhKDAtI426Yj-39" vertex="1">
          <mxGeometry y="130" width="90" height="30" as="geometry" />
        </mxCell>
        <mxCell id="Hh2Wy0dAyhKDAtI426Yj-43" value="&lt;span style=&quot;background-color: initial;&quot;&gt;log_*.txt&lt;/span&gt;" style="text;align=left;verticalAlign=middle;spacingLeft=4;spacingRight=4;overflow=hidden;points=[[0,0.5],[1,0.5]];portConstraint=eastwest;rotatable=0;whiteSpace=wrap;html=1;fontSize=14;fillColor=#f5f5f5;fontColor=#333333;strokeColor=#666666;" parent="Hh2Wy0dAyhKDAtI426Yj-39" vertex="1">
          <mxGeometry y="160" width="90" height="30" as="geometry" />
        </mxCell>
        <mxCell id="Hh2Wy0dAyhKDAtI426Yj-54" value="&lt;span style=&quot;color: rgb(0, 0, 0); font-family: Helvetica; font-size: 14px; font-style: normal; font-variant-ligatures: normal; font-variant-caps: normal; font-weight: 400; letter-spacing: normal; orphans: 2; text-align: center; text-indent: 0px; text-transform: none; widows: 2; word-spacing: 0px; -webkit-text-stroke-width: 0px; background-color: rgb(251, 251, 251); text-decoration-thickness: initial; text-decoration-style: initial; text-decoration-color: initial; float: none; display: inline !important;&quot;&gt;Prints val/test&lt;/span&gt;&lt;br style=&quot;border-color: var(--border-color); color: rgb(0, 0, 0); font-family: Helvetica; font-size: 14px; font-style: normal; font-variant-ligatures: normal; font-variant-caps: normal; font-weight: 400; letter-spacing: normal; orphans: 2; text-align: center; text-indent: 0px; text-transform: none; widows: 2; word-spacing: 0px; -webkit-text-stroke-width: 0px; background-color: rgb(251, 251, 251); text-decoration-thickness: initial; text-decoration-style: initial; text-decoration-color: initial;&quot;&gt;&lt;span style=&quot;color: rgb(0, 0, 0); font-family: Helvetica; font-size: 14px; font-style: normal; font-variant-ligatures: normal; font-variant-caps: normal; font-weight: 400; letter-spacing: normal; orphans: 2; text-align: center; text-indent: 0px; text-transform: none; widows: 2; word-spacing: 0px; -webkit-text-stroke-width: 0px; background-color: rgb(251, 251, 251); text-decoration-thickness: initial; text-decoration-style: initial; text-decoration-color: initial; float: none; display: inline !important;&quot;&gt;scoring metric&lt;/span&gt;&lt;br&gt;" style="rounded=1;whiteSpace=wrap;html=1;fontSize=14;verticalAlign=top;" parent="1" vertex="1">
          <mxGeometry x="747" y="245" width="120" height="50" as="geometry" />
        </mxCell>
      </root>
    </mxGraphModel>
  </diagram>
</mxfile>
